<?xml version="1.0" encoding="UTF-8" standalone="no"?>
<!-- Created with Inkscape (http://www.inkscape.org/) -->

<svg
   xmlns:dc="http://purl.org/dc/elements/1.1/"
   xmlns:cc="http://creativecommons.org/ns#"
   xmlns:rdf="http://www.w3.org/1999/02/22-rdf-syntax-ns#"
   xmlns:svg="http://www.w3.org/2000/svg"
   xmlns="http://www.w3.org/2000/svg"
   xmlns:sodipodi="http://sodipodi.sourceforge.net/DTD/sodipodi-0.dtd"
   xmlns:inkscape="http://www.inkscape.org/namespaces/inkscape"
   width="531.49603"
   height="531.49603"
   id="svg2"
   version="1.1"
   inkscape:version="0.48.1 r9760"
   sodipodi:docname="helveticaman.svg"
   inkscape:export-filename="foo.png"
   inkscape:export-xdpi="90"
   inkscape:export-ydpi="90">
  <defs
     id="defs4" />
  <sodipodi:namedview
     id="base"
     pagecolor="#ffffff"
     bordercolor="#666666"
     borderopacity="1.0"
     inkscape:pageopacity="0.0"
     inkscape:pageshadow="2"
     inkscape:zoom="1"
     inkscape:cx="52.5"
     inkscape:cy="147"
     inkscape:document-units="px"
     inkscape:current-layer="g3300"
     showgrid="false"
     inkscape:window-width="1918"
     inkscape:window-height="1059"
     inkscape:window-x="0"
     inkscape:window-y="19"
     inkscape:window-maximized="0"
     units="mm" />
  <metadata
     id="metadata7">
    <rdf:RDF>
      <cc:Work
         rdf:about="">
        <dc:format>image/svg+xml</dc:format>
        <dc:type
           rdf:resource="http://purl.org/dc/dcmitype/StillImage" />
        <dc:title></dc:title>
      </cc:Work>
    </rdf:RDF>
  </metadata>
  <g
     inkscape:label="Layer 1"
     inkscape:groupmode="layer"
     id="layer1"
     transform="translate(0,-520.866)">
    <g
       id="g3300"
       transform="matrix(0.47785905,0,0,0.49400508,1.0017032,533.17388)">
      <path
         sodipodi:nodetypes="scccccssccccss"
         inkscape:connector-curvature="0"
         id="path3202"
         d="m 502.46781,215.04141 c 156.51091,0 287.14541,109.71103 318.44811,255.91765 4.3675,7.62683 8.4321,15.62114 11.7849,23.55897 l 76.9861,182.27906 c 18.6012,44.03897 -40.1792,51.00927 -57.3873,50.88735 l -18.53344,0 -12,95.94425 c -12.88359,103.00882 -47.47346,127.39472 -134.3269,127.39472 l -30.87127,0 0,95.31289 -349.5756,0 0,-249.05195 C 227.96109,738.25528 176.84629,644.33058 176.84629,538.53963 c 0,-178.67578 145.76442,-323.49822 325.62152,-323.49822 z"
         style="fill:#000000;fill-opacity:1;stroke:#000000;stroke-width:10.29092407;stroke-miterlimit:4;stroke-opacity:1;stroke-dasharray:none;stroke-dashoffset:0" />
      <path
         inkscape:connector-curvature="0"
         style="color:#000000;fill:#ffffff;fill-opacity:1;fill-rule:nonzero;stroke:#000000;stroke-width:4.54586935000000025;stroke-linecap:butt;stroke-linejoin:miter;stroke-miterlimit:4;stroke-opacity:1;stroke-dasharray:none;stroke-dashoffset:0;marker:none;visibility:visible;display:inline;overflow:visible"
         d="m 474.26831,482.3202 c -1.80814,-1.09634 -3.48149,-2.32929 -5.21483,-3.49193 l -0.12559,-0.063 7.84017,-26.59566 c -6.34437,-5.35639 -11.68262,-11.64705 -15.83634,-18.59571 l -26.99365,4.20333 c -3.22696,-6.95041 -5.62245,-14.35068 -7.22381,-21.8534 l 23.90375,-13.17643 c -0.92134,-8.58868 -0.35067,-17.55845 1.77502,-26.19499 0.0184,-0.0353 0.0617,-0.12031 0.0639,-0.1281 l -21.97932,-16.14975 c 1.3819,-3.83871 3.06922,-7.67205 4.94774,-11.40419 1.53683,-3.0537 3.13645,-6.02361 4.92825,-8.8476 l 26.08151,7.99909 c 5.92927,-7.52604 13.10826,-13.70788 21.10075,-18.31176 l -4.28006,-27.0724 c 6.64653,-3.01672 13.69127,-5.2507 20.82456,-6.74377 l 13.07719,24.3915 c 9.32124,-0.91425 18.77694,-0.0494 28.07837,2.77272 L 561.124,300.93493 c 2.80625,1.13642 5.56063,2.54742 8.30538,3.96335 3.87526,1.99882 7.50216,4.057 11.00163,6.47688 l -7.842,26.91544 c 7.05545,6.2059 12.87072,13.6527 17.07457,21.80119 l 26.55203,-4.27068 c 2.8462,6.91877 4.93702,14.26237 6.2151,21.65391 l -24.47355,13.3637 c 0.45829,8.63964 -0.60304,17.36385 -3.22545,25.92809 l 21.85352,16.08505 c -1.05505,2.6197 -2.24034,5.07663 -3.53206,7.64275 -2.24434,4.45926 -4.95715,8.56733 -7.7346,12.53333 l -26.39711,-8.0016 c -5.45431,6.09913 -11.88247,11.09889 -18.80281,15.00548 l 4.27996,27.07233 c -7.15203,3.18247 -14.71482,5.62911 -22.40547,7.05132 l -13.32663,-24.8409 c -7.66953,0.48865 -15.37393,-0.0753 -23.03178,-2.09472 l -15.9525,22.25068 c -3.64087,-1.36271 -7.21883,-2.92152 -10.76161,-4.74899 -0.95782,-0.49403 -1.95755,-0.97395 -2.89372,-1.49265 -0.45569,-0.25397 -0.93639,-0.4468 -1.38363,-0.71354 -0.12126,-0.0712 -0.25768,-0.12246 -0.37861,-0.19536 z m 34.42262,-60.20695 c 0.4479,0.26143 0.91864,0.47388 1.38418,0.7138 14.89118,7.68112 33.24068,1.64531 40.82805,-13.4299 7.58736,-15.07519 1.5613,-33.52398 -13.32988,-41.20515 -14.8914,-7.68133 -33.0509,-1.70789 -40.63837,13.36732 -7.35037,14.60408 -2.12255,32.47307 11.75602,40.55386 z"
         id="path4434" />
      <path
         id="path4436"
         d="m 339.53404,661.59513 c -2.18038,-1.32206 -4.19832,-2.80887 -6.28854,-4.21089 l -0.15081,-0.076 9.45444,-32.07153 c -7.6506,-6.45924 -14.08797,-14.0451 -19.0969,-22.42445 l -32.55148,5.06875 c -3.89145,-8.38146 -6.78015,-17.30539 -8.71119,-26.35288 l 28.82543,-15.88935 c -1.11109,-10.35704 -0.42293,-21.17363 2.14038,-31.58838 0.023,-0.0426 0.0737,-0.14508 0.0771,-0.15442 l -26.50476,-19.47491 c 1.66648,-4.62907 3.70114,-9.25166 5.96644,-13.75223 1.85334,-3.68244 3.78227,-7.26382 5.94297,-10.66924 l 31.45154,9.64603 c 7.14996,-9.07561 15.80706,-16.53025 25.44527,-22.08202 l -5.16138,-32.64643 c 8.01517,-3.63785 16.51031,-6.33178 25.11233,-8.13227 l 15.7697,29.41355 c 11.24043,-1.10248 22.64295,-0.0595 33.85944,3.3436 l 19.15936,-26.67824 c 3.38392,1.37041 6.70541,3.07192 10.0154,4.77936 4.67305,2.41038 9.04675,4.89233 13.26687,7.81043 l -9.45673,32.45714 c 8.50808,7.48367 15.52068,16.46373 20.5901,26.2899 l 32.01888,-5.14995 c 3.43228,8.34327 5.95363,17.19888 7.49471,26.1123 l -29.51245,16.11521 c 0.55259,10.41847 -0.72718,20.93894 -3.88949,31.26649 l 26.3531,19.39684 c -1.27222,3.15909 -2.70166,6.12189 -4.25929,9.21635 -2.70657,5.37738 -5.9779,10.3313 -9.32723,15.11386 l -31.832,-9.64908 c -6.57738,7.3549 -14.32895,13.38408 -22.67428,18.09503 l 5.16122,32.64634 c -8.62463,3.8377 -17.74451,6.78809 -27.01863,8.50313 l -16.0705,-29.95548 c -9.24856,0.58926 -18.53939,-0.091 -27.77385,-2.526 l -19.23705,26.83194 c -4.39043,-1.6433 -8.70514,-3.52304 -12.97739,-5.72678 -1.15485,-0.59574 -2.36054,-1.17447 -3.48949,-1.79998 -0.54949,-0.30626 -1.12912,-0.53878 -1.66845,-0.86044 -0.14589,-0.0858 -0.3108,-0.14771 -0.45652,-0.2356 z m 41.51004,-72.60317 c 0.54013,0.31527 1.10781,0.57148 1.66909,0.86079 17.9573,9.26259 40.0847,1.98405 49.23423,-16.19504 9.14971,-18.17907 1.88286,-40.42633 -16.07427,-49.68901 -17.95745,-9.26286 -39.85586,-2.05952 -49.00556,16.11955 -8.86364,17.61098 -2.55954,39.15906 14.17651,48.90364 z"
         style="color:#000000;fill:#ffffff;fill-opacity:1;fill-rule:nonzero;stroke:#000000;stroke-width:5.48183298000000008;stroke-linecap:butt;stroke-linejoin:miter;stroke-miterlimit:4;stroke-opacity:1;stroke-dasharray:none;stroke-dashoffset:0;marker:none;visibility:visible;display:inline;overflow:visible"
         inkscape:connector-curvature="0" />
      <path
         id="path4440"
         d="m 347.34834,421.27719 c -1.41829,-0.55667 -2.75914,-1.22592 -4.13326,-1.83827 l -0.0967,-0.0297 2.1136,-19.73108 c -5.17118,-3.01927 -9.75194,-6.81976 -13.58074,-11.22759 l -18.52641,6.22143 c -3.1744,-4.52089 -5.81947,-9.45968 -7.91666,-14.56644 l 15.1884,-12.18743 c -1.75673,-5.95593 -2.50853,-12.36064 -2.11905,-18.71738 0.008,-0.0267 0.0282,-0.0927 0.0283,-0.0982 l -17.60505,-8.75968 c 0.48173,-2.87805 1.18004,-5.7892 2.0265,-8.65174 0.69242,-2.34221 1.43987,-4.6328 2.34194,-6.84355 l 19.45331,2.50801 c 3.21921,-6.03059 7.49433,-11.26219 12.54719,-15.47729 l -6.5092,-18.60751 c 4.30649,-2.93183 8.99505,-5.35857 13.84169,-7.27272 l 12.37811,15.65404 c 6.46655,-1.76885 13.25712,-2.29744 20.19083,-1.42442 l 8.37431,-17.54143 c 2.1286,0.46454 4.25589,1.12938 6.37712,1.79888 2.99474,0.94498 5.82165,1.9619 8.60524,3.2496 l -2.07381,19.95725 c 5.78297,3.53364 10.84962,8.09325 14.86832,13.34269 l 18.20577,-6.21578 c 2.90132,4.54438 5.32391,9.47977 7.17841,14.54702 l -15.56676,12.38841 c 1.43615,6.04765 1.80982,12.33799 1.06005,18.70363 l 17.50801,8.72906 c -0.40785,1.97762 -0.92888,3.85602 -1.51082,5.82429 -1.01116,3.42031 -2.3985,6.64895 -3.84977,9.78505 l -19.67657,-2.4717 c -3.06752,4.96539 -6.9644,9.27157 -11.34973,12.8649 l 6.50921,18.60752 c -4.64233,3.10981 -9.66943,5.74921 -14.91885,7.68039 l -12.61211,-15.94141 c -5.35468,1.26928 -10.86958,1.79902 -16.53889,1.29525 l -8.40339,17.63939 c -2.74727,-0.52391 -5.47534,-1.19402 -8.21324,-2.05803 -0.74012,-0.23358 -1.50816,-0.45206 -2.23623,-0.70573 -0.35457,-0.12443 -0.719,-0.20278 -1.06926,-0.33729 -0.0944,-0.0356 -0.19775,-0.0553 -0.29257,-0.0925 z m 16.56307,-46.67603 c 0.35002,0.13071 0.70991,0.22401 1.06963,0.33745 11.50781,3.63159 23.6922,-2.84274 27.11061,-14.40564 3.4185,-11.5629 -3.21373,-23.8687 -14.72144,-27.50031 -11.50806,-3.63178 -23.56635,2.77565 -26.98485,14.33855 -3.31156,11.20157 2.68198,23.19392 13.52603,27.22984 z"
         style="color:#000000;fill:#ffffff;fill-opacity:1;fill-rule:nonzero;stroke:#000000;stroke-width:3.26062941999999989;stroke-linecap:butt;stroke-linejoin:miter;stroke-miterlimit:4;stroke-opacity:1;stroke-dasharray:none;stroke-dashoffset:0;marker:none;visibility:visible;display:inline;overflow:visible"
         inkscape:connector-curvature="0" />
    </g>
  </g>
</svg>
